<?xml version="1.0" encoding="UTF-8"?>
<svg version="1.1" xmlns="http://www.w3.org/2000/svg" width="48" height="48">
<path d="M0 0 C4.20753846 1.66344544 5.83057582 5.06196861 7.6875 9.0625 C10.12978979 15.49973804 9.91778465 21.67674489 9.8125 28.5 C9.80347656 29.61310547 9.79445313 30.72621094 9.78515625 31.87304688 C9.7617224 34.60309023 9.728914 37.3326801 9.6875 40.0625 C10.3475 40.0625 11.0075 40.0625 11.6875 40.0625 C11.6875 40.7225 11.6875 41.3825 11.6875 42.0625 C9.3775 42.0625 7.0675 42.0625 4.6875 42.0625 C3.6975 44.5375 3.6975 44.5375 2.6875 47.0625 C-1.98857362 46.43059816 -1.98857362 46.43059816 -3.6875 44.5 C-6.29748162 42.1911701 -8.98176021 42.87396756 -12.3125 43.0625 C-12.00397815 41.103536 -11.6905582 39.14534287 -11.375 37.1875 C-11.20097656 36.09695312 -11.02695313 35.00640625 -10.84765625 33.8828125 C-10.3125 31.0625 -10.3125 31.0625 -9.3125 29.0625 C-9.621875 28.010625 -9.93125 26.95875 -10.25 25.875 C-12.26407153 18.64803745 -11.30641533 12.8082839 -8.3125 6.0625 C-4.22299914 0.11413511 -4.22299914 0.11413511 0 0 Z M-5.3125 35.0625 C-4.3125 38.0625 -4.3125 38.0625 -4.3125 38.0625 Z " fill="#070500" transform="translate(22.3125,0.9375)"/>
<path d="M0 0 C5.61 0 11.22 0 17 0 C17.37351948 6.91011034 17.49777059 10.65889743 13 16 C12.566875 15.525625 12.13375 15.05125 11.6875 14.5625 C9.97690387 12.76313043 9.97690387 12.76313043 7 12 C7 13.65 7 15.3 7 17 C2.33263689 11.68886267 0 7.13691204 0 0 Z " fill="#F8BA0F" transform="translate(13,19)"/>
<path d="M0 0 C1.60875 0.185625 1.60875 0.185625 3.25 0.375 C4.09069415 1.97532137 4.92231505 3.58041171 5.75 5.1875 C6.2140625 6.08082031 6.678125 6.97414063 7.15625 7.89453125 C8.25 10.375 8.25 10.375 8.25 13.375 C5.79203147 13.56936491 3.33390706 13.7557742 0.875 13.9375 C0.17632812 13.99357422 -0.52234375 14.04964844 -1.2421875 14.10742188 C-6.5234375 14.48828125 -6.5234375 14.48828125 -8.75 13.375 C-8.22953739 6.86921732 -7.35208458 0.73520846 0 0 Z " fill="#E6AD0E" transform="translate(21.75,4.625)"/>
<path d="M0 0 C5.35665617 4.31508414 7.29550372 9.41430633 9 16 C9.43158549 20.25085307 9.38586291 24.42088203 9.25 28.6875 C9.23195313 29.78255859 9.21390625 30.87761719 9.1953125 32.00585938 C9.14875049 34.67153462 9.08338317 37.3352664 9 40 C9.66 40 10.32 40 11 40 C11 40.66 11 41.32 11 42 C9.35 42 7.7 42 6 42 C6.99 41.505 6.99 41.505 8 41 C8 40.34 8 39.68 8 39 C7.34 38.67 6.68 38.34 6 38 C6.66 38 7.32 38 8 38 C7.84402344 37.39414062 7.68804688 36.78828125 7.52734375 36.1640625 C6.05157517 29.81141631 5.98751417 24.43065325 7 18 C6.20335937 18.24556641 6.20335937 18.24556641 5.390625 18.49609375 C2.46123236 19.11356377 -0.25822936 19.09501925 -3.25 19.0625 C-4.32765625 19.05347656 -5.4053125 19.04445313 -6.515625 19.03515625 C-7.33546875 19.02355469 -8.1553125 19.01195313 -9 19 C-8.67 18.34 -8.34 17.68 -8 17 C-3.05 17 1.9 17 7 17 C6.278125 15.06125 5.55625 13.1225 4.8125 11.125 C4.40644531 10.03445313 4.00039063 8.94390625 3.58203125 7.8203125 C2.23320681 4.80961878 2.23320681 4.80961878 -0.67578125 3.6171875 C-1.82626953 3.31167969 -1.82626953 3.31167969 -3 3 C-2.01 2.01 -1.02 1.02 0 0 Z " fill="#140F01" transform="translate(23,1)"/>
<path d="M0 0 C1.5 1 1.5 1 3 3 C3.27345479 5.71846235 3.13491285 8.25677199 3 11 C1.35 11.33 -0.3 11.66 -2 12 C-2.66 10.68 -3.32 9.36 -4 8 C-4.99 8 -5.98 8 -7 8 C-7 5.69 -7 3.38 -7 1 C-6.01 1 -5.02 1 -4 1 C-3.34 1.66 -2.68 2.32 -2 3 C-1.34 2.01 -0.68 1.02 0 0 Z " fill="#0A3F3D" transform="translate(28,31)"/>
<path d="M0 0 C1.32 1.32 2.64 2.64 4 4 C4.33 3.01 4.66 2.02 5 1 C5.99 1.33 6.98 1.66 8 2 C7.34 2 6.68 2 6 2 C6 4.31 6 6.62 6 9 C7.32 8.67 8.64 8.34 10 8 C10.625 10.3125 10.625 10.3125 11 13 C10.01 14.485 10.01 14.485 9 16 C7.68 15.67 6.36 15.34 5 15 C4.34 12.03 3.68 9.06 3 6 C2.34 6 1.68 6 1 6 C1 4.68 1 3.36 1 2 C0.34 1.67 -0.32 1.34 -1 1 C-0.67 0.67 -0.34 0.34 0 0 Z " fill="#1B0D03" transform="translate(15,30)"/>
<path d="M0 0 C2.31 0.33 4.62 0.66 7 1 C7.125 3.875 7.125 3.875 7 7 C6.34 7.66 5.68 8.32 5 9 C1.875 8.625 1.875 8.625 -1 8 C-1.625 5.6875 -1.625 5.6875 -2 3 C-1.34 2.01 -0.68 1.02 0 0 Z " fill="#0F241D" transform="translate(18,7)"/>
<path d="M0 0 C0.99 0.66 1.98 1.32 3 2 C3.6875 5.625 3.6875 5.625 4 9 C5.32 9.33 6.64 9.66 8 10 C8.33 9.01 8.66 8.02 9 7 C9.66 7 10.32 7 11 7 C10.34 8.65 9.68 10.3 9 12 C4.32392638 11.36809816 4.32392638 11.36809816 2.625 9.4375 C0.01501838 7.1286701 -2.66926021 7.81146756 -6 8 C-4.36587557 6.29159719 -3.13093906 5.06546953 -1 4 C-0.34786708 1.97536745 -0.34786708 1.97536745 0 0 Z " fill="#040100" transform="translate(16,36)"/>
<path d="M0 0 C0.66 0 1.32 0 2 0 C2 3.3 2 6.6 2 10 C0.68 9.67 -0.64 9.34 -2 9 C-1.125 1.125 -1.125 1.125 0 0 Z " fill="#0A5E5F" transform="translate(14,32)"/>
<path d="M0 0 C0 1.65 0 3.3 0 5 C-1.65 5 -3.3 5 -5 5 C-5.33 3.35 -5.66 1.7 -6 0 C-3.50907189 -1.24546405 -2.58919267 -0.7767578 0 0 Z " fill="#4D685C" transform="translate(22,10)"/>
<path d="M0 0 C2.31 0 4.62 0 7 0 C7.66 1.32 8.32 2.64 9 4 C8.01 4.495 8.01 4.495 7 5 C7 4.34 7 3.68 7 3 C2.34947128 2.73067479 2.34947128 2.73067479 -2 4 C-1.34 2.68 -0.68 1.36 0 0 Z " fill="#F3B70F" transform="translate(18,5)"/>
<path d="M0 0 C0.99 0 1.98 0 3 0 C3.66 1.32 4.32 2.64 5 4 C4.34 4 3.68 4 3 4 C3 4.99 3 5.98 3 7 C2.01 7 1.02 7 0 7 C0 4.69 0 2.38 0 0 Z " fill="#17726B" transform="translate(21,32)"/>
<path d="M0 0 C3.875 0.875 3.875 0.875 5 2 C5.33 2.99 5.66 3.98 6 5 C5.67 5.66 5.34 6.32 5 7 C3.68 6.67 2.36 6.34 1 6 C0.67 4.02 0.34 2.04 0 0 Z " fill="#BA4219" transform="translate(19,39)"/>
<path d="M0 0 C2 1.375 2 1.375 4 3 C4 3.66 4 4.32 4 5 C1.69 4.34 -0.62 3.68 -3 3 C-2.01 2.01 -1.02 1.02 0 0 Z " fill="#381307" transform="translate(23,1)"/>
</svg>
